<svg width="60" height="60" viewBox="0 0 60 60" fill="none" xmlns="http://www.w3.org/2000/svg">
<path d="M40.5839 32.4256C41.0082 32.072 41.0655 31.4415 40.7119 31.0172C40.3583 30.5929 39.7278 30.5356 39.3035 30.8891L40.5839 32.4256ZM29.9999 39.9438L29.3597 40.7121C29.7306 41.0211 30.2693 41.0211 30.6401 40.7121L29.9999 39.9438ZM20.6964 30.8891C20.2721 30.5356 19.6415 30.5929 19.288 31.0172C18.9344 31.4415 18.9917 32.072 19.416 32.4256L20.6964 30.8891ZM30.9999 20.0563C30.9999 19.504 30.5522 19.0563 29.9999 19.0563C29.4476 19.0563 28.9999 19.504 28.9999 20.0563L30.9999 20.0563ZM39.3035 30.8891L29.3597 39.1756L30.6401 40.7121L40.5839 32.4256L39.3035 30.8891ZM30.6401 39.1756L20.6964 30.8891L19.416 32.4256L29.3597 40.7121L30.6401 39.1756ZM30.9999 39.9438L30.9999 20.0563L28.9999 20.0563L28.9999 39.9438H30.9999ZM45.2028 45.2028C36.8065 53.5991 23.1935 53.5991 14.7972 45.2028L13.383 46.617C22.5603 55.7943 37.4397 55.7943 46.617 46.617L45.2028 45.2028ZM14.7972 45.2028C6.40093 36.8065 6.40093 23.1935 14.7972 14.7972L13.383 13.383C4.20567 22.5603 4.20567 37.4397 13.383 46.617L14.7972 45.2028ZM14.7972 14.7972C23.1935 6.40093 36.8065 6.40093 45.2028 14.7972L46.617 13.383C37.4397 4.20567 22.5603 4.20567 13.383 13.383L14.7972 14.7972ZM45.2028 14.7972C53.5991 23.1935 53.5991 36.8065 45.2028 45.2028L46.617 46.617C55.7943 37.4397 55.7943 22.5603 46.617 13.383L45.2028 14.7972Z" fill="#1B1548"/>
</svg>
